<svg xmlns="http://www.w3.org/2000/svg" viewBox="0 0 20 20" width="20" height="20">
  <rect x="0" y="0" width="3" height="6" fill="oklch(90% 0.15 -45deg)"/>
  <rect x="3" y="0" width="3" height="6" fill="oklch(90% 0.15 0deg)"/>
  <rect x="0" y="7" width="3" height="6" fill="oklch(90% 0.15 -5deg)"/>
  <rect x="3" y="7" width="3" height="6" fill="oklch(90% 0.15 40deg)"/>
  <rect x="0" y="14" width="3" height="6" fill="oklch(90% 0.15 35deg)"/>
  <rect x="3" y="14" width="3" height="6" fill="oklch(90% 0.15 80deg)"/>
  <rect x="7" y="0" width="6" height="6" fill="oklch(80% 0.15 75deg)"/>
  <rect x="7" y="7" width="6" height="6" fill="oklch(80% 0.15 115deg)"/>
  <rect x="7" y="14" width="6" height="6" fill="oklch(80% 0.15 155deg)"/>
  <rect x="14" y="0" width="3" height="6" fill="oklch(60% 0.15 195deg)"/>
  <rect x="17" y="0" width="3" height="6" fill="oklch(60% 0.15 240deg)"/>
  <rect x="14" y="7" width="3" height="6" fill="oklch(60% 0.15 235deg)"/>
  <rect x="17" y="7" width="3" height="6" fill="oklch(60% 0.15 280deg)"/>
  <rect x="14" y="14" width="3" height="6" fill="oklch(60% 0.15 275deg)"/>
  <rect x="17" y="14" width="3" height="6" fill="oklch(60% 0.15 320deg)"/>
</svg>
